<mxfile host="app.diagrams.net" modified="2024-03-28T08:55:01.329Z" agent="Mozilla/5.0 (Windows NT 10.0; Win64; x64; rv:124.0) Gecko/20100101 Firefox/124.0" etag="dhLlVh3yzK6ldu2f9c-2" version="24.2.0" type="device">
  <diagram id="C5RBs43oDa-KdzZeNtuy" name="Page-1">
    <mxGraphModel dx="2876" dy="2286" grid="1" gridSize="10" guides="1" tooltips="1" connect="1" arrows="1" fold="1" page="1" pageScale="1" pageWidth="827" pageHeight="1169" math="0" shadow="0">
      <root>
        <mxCell id="WIyWlLk6GJQsqaUBKTNV-0" />
        <mxCell id="WIyWlLk6GJQsqaUBKTNV-1" parent="WIyWlLk6GJQsqaUBKTNV-0" />
        <mxCell id="-gnc18n2pd0LGO67LdCI-12" value="" style="group;fontFamily=Verdana;" parent="WIyWlLk6GJQsqaUBKTNV-1" vertex="1" connectable="0">
          <mxGeometry x="428" y="-560" width="240" height="280" as="geometry" />
        </mxCell>
        <mxCell id="-gnc18n2pd0LGO67LdCI-6" value="" style="rounded=0;whiteSpace=wrap;html=1;fillColor=#f5f5f5;fontColor=#333333;strokeColor=#666666;" parent="-gnc18n2pd0LGO67LdCI-12" vertex="1">
          <mxGeometry width="240" height="40" as="geometry" />
        </mxCell>
        <mxCell id="-gnc18n2pd0LGO67LdCI-7" value="" style="rounded=0;whiteSpace=wrap;html=1;" parent="-gnc18n2pd0LGO67LdCI-12" vertex="1">
          <mxGeometry x="40" y="40" width="200" height="40" as="geometry" />
        </mxCell>
        <mxCell id="-gnc18n2pd0LGO67LdCI-8" value="" style="rounded=0;whiteSpace=wrap;html=1;" parent="-gnc18n2pd0LGO67LdCI-12" vertex="1">
          <mxGeometry y="40" width="40" height="40" as="geometry" />
        </mxCell>
        <mxCell id="-gnc18n2pd0LGO67LdCI-9" value="" style="rounded=0;whiteSpace=wrap;html=1;" parent="-gnc18n2pd0LGO67LdCI-12" vertex="1">
          <mxGeometry y="80" width="40" height="200" as="geometry" />
        </mxCell>
        <mxCell id="-gnc18n2pd0LGO67LdCI-10" value="" style="rounded=0;whiteSpace=wrap;html=1;" parent="-gnc18n2pd0LGO67LdCI-12" vertex="1">
          <mxGeometry x="40" y="80" width="200" height="200" as="geometry" />
        </mxCell>
        <mxCell id="-gnc18n2pd0LGO67LdCI-11" value="&lt;b&gt;PK&lt;/b&gt;" style="text;strokeColor=none;align=center;fillColor=none;html=1;verticalAlign=middle;whiteSpace=wrap;rounded=0;" parent="-gnc18n2pd0LGO67LdCI-12" vertex="1">
          <mxGeometry y="40" width="40" height="40" as="geometry" />
        </mxCell>
        <mxCell id="-gnc18n2pd0LGO67LdCI-15" value="&lt;b&gt;id_tournament&lt;/b&gt;" style="text;strokeColor=none;align=left;fillColor=none;html=1;verticalAlign=middle;whiteSpace=wrap;rounded=0;fontStyle=4" parent="-gnc18n2pd0LGO67LdCI-12" vertex="1">
          <mxGeometry x="55.00000000000001" y="45" width="110.00000000000001" height="30" as="geometry" />
        </mxCell>
        <mxCell id="-gnc18n2pd0LGO67LdCI-16" value="unique_name NN UNIQUE" style="text;strokeColor=none;align=left;fillColor=none;html=1;verticalAlign=middle;whiteSpace=wrap;rounded=0;fontFamily=Verdana;" parent="-gnc18n2pd0LGO67LdCI-12" vertex="1">
          <mxGeometry x="55" y="90" width="175" height="30" as="geometry" />
        </mxCell>
        <mxCell id="-gnc18n2pd0LGO67LdCI-17" value="tournament_date NN" style="text;strokeColor=none;align=left;fillColor=none;html=1;verticalAlign=middle;whiteSpace=wrap;rounded=0;fontFamily=Verdana;" parent="-gnc18n2pd0LGO67LdCI-12" vertex="1">
          <mxGeometry x="55" y="120" width="135" height="30" as="geometry" />
        </mxCell>
        <mxCell id="-gnc18n2pd0LGO67LdCI-18" value="coach (FK) NN" style="text;strokeColor=none;align=left;fillColor=none;html=1;verticalAlign=middle;whiteSpace=wrap;rounded=0;fontFamily=Verdana;" parent="-gnc18n2pd0LGO67LdCI-12" vertex="1">
          <mxGeometry x="55.00000000000001" y="150" width="110.00000000000001" height="30" as="geometry" />
        </mxCell>
        <mxCell id="-gnc18n2pd0LGO67LdCI-14" value="&lt;b&gt;proj.tournaments&lt;/b&gt;" style="text;strokeColor=none;align=center;fillColor=none;html=1;verticalAlign=middle;whiteSpace=wrap;rounded=0;" parent="-gnc18n2pd0LGO67LdCI-12" vertex="1">
          <mxGeometry width="240" height="40" as="geometry" />
        </mxCell>
        <mxCell id="-gnc18n2pd0LGO67LdCI-22" value="banner NN" style="text;strokeColor=none;align=left;fillColor=none;html=1;verticalAlign=middle;whiteSpace=wrap;rounded=0;fontFamily=Verdana;" parent="-gnc18n2pd0LGO67LdCI-12" vertex="1">
          <mxGeometry x="55.00000000000001" y="180" width="110.00000000000001" height="30" as="geometry" />
        </mxCell>
        <mxCell id="-gnc18n2pd0LGO67LdCI-23" value="current_nb_participant NN" style="text;strokeColor=none;align=left;fillColor=none;html=1;verticalAlign=middle;whiteSpace=wrap;rounded=0;fontFamily=Verdana;" parent="-gnc18n2pd0LGO67LdCI-12" vertex="1">
          <mxGeometry x="55" y="210" width="175" height="30" as="geometry" />
        </mxCell>
        <mxCell id="-gnc18n2pd0LGO67LdCI-24" value="max_nb_participant NN" style="text;strokeColor=none;align=left;fillColor=none;html=1;verticalAlign=middle;whiteSpace=wrap;rounded=0;fontFamily=Verdana;" parent="-gnc18n2pd0LGO67LdCI-12" vertex="1">
          <mxGeometry x="55" y="240" width="175" height="30" as="geometry" />
        </mxCell>
        <mxCell id="-gnc18n2pd0LGO67LdCI-51" value="" style="group" parent="WIyWlLk6GJQsqaUBKTNV-1" vertex="1" connectable="0">
          <mxGeometry x="120" y="-1039" width="200" height="280" as="geometry" />
        </mxCell>
        <mxCell id="-gnc18n2pd0LGO67LdCI-59" value="" style="group" parent="-gnc18n2pd0LGO67LdCI-51" vertex="1" connectable="0">
          <mxGeometry width="200" height="280" as="geometry" />
        </mxCell>
        <mxCell id="-gnc18n2pd0LGO67LdCI-60" value="" style="group" parent="-gnc18n2pd0LGO67LdCI-59" vertex="1" connectable="0">
          <mxGeometry width="200" height="280" as="geometry" />
        </mxCell>
        <mxCell id="-gnc18n2pd0LGO67LdCI-29" value="" style="rounded=0;whiteSpace=wrap;html=1;" parent="-gnc18n2pd0LGO67LdCI-60" vertex="1">
          <mxGeometry x="-40" y="-1" width="40" height="241" as="geometry" />
        </mxCell>
        <mxCell id="-gnc18n2pd0LGO67LdCI-30" value="" style="rounded=0;whiteSpace=wrap;html=1;" parent="-gnc18n2pd0LGO67LdCI-60" vertex="1">
          <mxGeometry y="-1" width="200" height="241" as="geometry" />
        </mxCell>
        <mxCell id="-gnc18n2pd0LGO67LdCI-33" value="first&lt;font face=&quot;Verdana&quot;&gt;name &lt;/font&gt;NN" style="text;strokeColor=none;align=left;fillColor=none;html=1;verticalAlign=middle;whiteSpace=wrap;rounded=0;" parent="-gnc18n2pd0LGO67LdCI-60" vertex="1">
          <mxGeometry x="10" y="9" width="130" height="30" as="geometry" />
        </mxCell>
        <mxCell id="-gnc18n2pd0LGO67LdCI-34" value="&lt;div align=&quot;left&quot;&gt;&lt;font face=&quot;Verdana&quot;&gt;surname NN&lt;/font&gt;&lt;/div&gt;" style="text;strokeColor=none;align=left;fillColor=none;html=1;verticalAlign=middle;whiteSpace=wrap;rounded=0;" parent="-gnc18n2pd0LGO67LdCI-60" vertex="1">
          <mxGeometry x="10" y="39" width="100" height="30" as="geometry" />
        </mxCell>
        <mxCell id="-gnc18n2pd0LGO67LdCI-35" value="status {&quot;u&quot;,&quot;c&quot;} NN" style="text;strokeColor=none;align=left;fillColor=none;html=1;verticalAlign=middle;whiteSpace=wrap;rounded=0;fontFamily=Verdana;" parent="-gnc18n2pd0LGO67LdCI-60" vertex="1">
          <mxGeometry x="10" y="129" width="140" height="30" as="geometry" />
        </mxCell>
        <mxCell id="-gnc18n2pd0LGO67LdCI-37" value="picture_name " style="text;strokeColor=none;align=left;fillColor=none;html=1;verticalAlign=middle;whiteSpace=wrap;rounded=0;fontFamily=Verdana;" parent="-gnc18n2pd0LGO67LdCI-60" vertex="1">
          <mxGeometry x="10" y="159" width="110" height="30" as="geometry" />
        </mxCell>
        <mxCell id="-gnc18n2pd0LGO67LdCI-38" value="bio " style="text;strokeColor=none;align=left;fillColor=none;html=1;verticalAlign=middle;whiteSpace=wrap;rounded=0;fontFamily=Verdana;" parent="-gnc18n2pd0LGO67LdCI-60" vertex="1">
          <mxGeometry x="10" y="189" width="140" height="30" as="geometry" />
        </mxCell>
        <mxCell id="-gnc18n2pd0LGO67LdCI-48" value="&lt;font face=&quot;Verdana&quot;&gt;email &lt;/font&gt;NN UNIQUE" style="text;strokeColor=none;align=left;fillColor=none;html=1;verticalAlign=middle;whiteSpace=wrap;rounded=0;" parent="-gnc18n2pd0LGO67LdCI-60" vertex="1">
          <mxGeometry x="10" y="69" width="130" height="30" as="geometry" />
        </mxCell>
        <mxCell id="-gnc18n2pd0LGO67LdCI-49" value="&lt;div align=&quot;left&quot;&gt;&lt;font face=&quot;Verdana&quot;&gt;password NN&lt;/font&gt;&lt;/div&gt;" style="text;strokeColor=none;align=left;fillColor=none;html=1;verticalAlign=middle;whiteSpace=wrap;rounded=0;" parent="-gnc18n2pd0LGO67LdCI-60" vertex="1">
          <mxGeometry x="10" y="99" width="100" height="30" as="geometry" />
        </mxCell>
        <mxCell id="-gnc18n2pd0LGO67LdCI-61" value="" style="group" parent="WIyWlLk6GJQsqaUBKTNV-1" vertex="1" connectable="0">
          <mxGeometry x="80" y="-1120" width="240" height="80" as="geometry" />
        </mxCell>
        <mxCell id="-gnc18n2pd0LGO67LdCI-26" value="" style="rounded=0;whiteSpace=wrap;html=1;fillColor=#f5f5f5;fontColor=#333333;strokeColor=#666666;" parent="-gnc18n2pd0LGO67LdCI-61" vertex="1">
          <mxGeometry width="240" height="40" as="geometry" />
        </mxCell>
        <mxCell id="-gnc18n2pd0LGO67LdCI-36" value="&lt;b&gt;proj.users&lt;/b&gt;" style="text;strokeColor=none;align=center;fillColor=none;html=1;verticalAlign=middle;whiteSpace=wrap;rounded=0;" parent="-gnc18n2pd0LGO67LdCI-61" vertex="1">
          <mxGeometry width="240" height="40" as="geometry" />
        </mxCell>
        <mxCell id="-gnc18n2pd0LGO67LdCI-27" value="" style="rounded=0;whiteSpace=wrap;html=1;" parent="-gnc18n2pd0LGO67LdCI-61" vertex="1">
          <mxGeometry x="40" y="40" width="200" height="40" as="geometry" />
        </mxCell>
        <mxCell id="-gnc18n2pd0LGO67LdCI-32" value="&lt;b&gt;id_user&lt;/b&gt;" style="text;strokeColor=none;align=left;fillColor=none;html=1;verticalAlign=middle;whiteSpace=wrap;rounded=0;fontStyle=4" parent="-gnc18n2pd0LGO67LdCI-61" vertex="1">
          <mxGeometry x="50" y="45" width="100" height="30" as="geometry" />
        </mxCell>
        <mxCell id="-gnc18n2pd0LGO67LdCI-28" value="" style="rounded=0;whiteSpace=wrap;html=1;" parent="-gnc18n2pd0LGO67LdCI-61" vertex="1">
          <mxGeometry y="40" width="40" height="40" as="geometry" />
        </mxCell>
        <mxCell id="-gnc18n2pd0LGO67LdCI-31" value="&lt;b&gt;PK&lt;/b&gt;" style="text;strokeColor=none;align=center;fillColor=none;html=1;verticalAlign=middle;whiteSpace=wrap;rounded=0;" parent="-gnc18n2pd0LGO67LdCI-61" vertex="1">
          <mxGeometry y="40" width="40" height="40" as="geometry" />
        </mxCell>
        <mxCell id="3PNE6WmQYY1Y-yN5yuSF-0" value="" style="group;fontFamily=Verdana;" parent="WIyWlLk6GJQsqaUBKTNV-1" vertex="1" connectable="0">
          <mxGeometry x="720" y="-40" width="240" height="280" as="geometry" />
        </mxCell>
        <mxCell id="3PNE6WmQYY1Y-yN5yuSF-1" value="" style="rounded=0;whiteSpace=wrap;html=1;fillColor=#f5f5f5;fontColor=#333333;strokeColor=#666666;" parent="3PNE6WmQYY1Y-yN5yuSF-0" vertex="1">
          <mxGeometry width="240" height="40" as="geometry" />
        </mxCell>
        <mxCell id="3PNE6WmQYY1Y-yN5yuSF-2" value="" style="rounded=0;whiteSpace=wrap;html=1;" parent="3PNE6WmQYY1Y-yN5yuSF-0" vertex="1">
          <mxGeometry x="40" y="40" width="200" height="40" as="geometry" />
        </mxCell>
        <mxCell id="3PNE6WmQYY1Y-yN5yuSF-3" value="" style="rounded=0;whiteSpace=wrap;html=1;" parent="3PNE6WmQYY1Y-yN5yuSF-0" vertex="1">
          <mxGeometry y="40" width="40" height="40" as="geometry" />
        </mxCell>
        <mxCell id="3PNE6WmQYY1Y-yN5yuSF-4" value="" style="rounded=0;whiteSpace=wrap;html=1;" parent="3PNE6WmQYY1Y-yN5yuSF-0" vertex="1">
          <mxGeometry y="80" width="40" height="200" as="geometry" />
        </mxCell>
        <mxCell id="3PNE6WmQYY1Y-yN5yuSF-5" value="" style="rounded=0;whiteSpace=wrap;html=1;" parent="3PNE6WmQYY1Y-yN5yuSF-0" vertex="1">
          <mxGeometry x="40" y="80" width="200" height="200" as="geometry" />
        </mxCell>
        <mxCell id="3PNE6WmQYY1Y-yN5yuSF-6" value="&lt;b&gt;PK&lt;/b&gt;" style="text;strokeColor=none;align=center;fillColor=none;html=1;verticalAlign=middle;whiteSpace=wrap;rounded=0;" parent="3PNE6WmQYY1Y-yN5yuSF-0" vertex="1">
          <mxGeometry y="40" width="40" height="40" as="geometry" />
        </mxCell>
        <mxCell id="3PNE6WmQYY1Y-yN5yuSF-7" value="&lt;b&gt;id_message&lt;/b&gt;" style="text;strokeColor=none;align=left;fillColor=none;html=1;verticalAlign=middle;whiteSpace=wrap;rounded=0;fontStyle=4" parent="3PNE6WmQYY1Y-yN5yuSF-0" vertex="1">
          <mxGeometry x="55.00000000000001" y="45" width="110.00000000000001" height="30" as="geometry" />
        </mxCell>
        <mxCell id="3PNE6WmQYY1Y-yN5yuSF-8" value="text NN" style="text;strokeColor=none;align=left;fillColor=none;html=1;verticalAlign=middle;whiteSpace=wrap;rounded=0;fontFamily=Verdana;" parent="3PNE6WmQYY1Y-yN5yuSF-0" vertex="1">
          <mxGeometry x="55" y="90" width="175" height="30" as="geometry" />
        </mxCell>
        <mxCell id="3PNE6WmQYY1Y-yN5yuSF-9" value="id_user (FK) NN" style="text;strokeColor=none;align=left;fillColor=none;html=1;verticalAlign=middle;whiteSpace=wrap;rounded=0;fontFamily=Verdana;" parent="3PNE6WmQYY1Y-yN5yuSF-0" vertex="1">
          <mxGeometry x="55.00000000000001" y="120" width="110.00000000000001" height="30" as="geometry" />
        </mxCell>
        <mxCell id="3PNE6WmQYY1Y-yN5yuSF-10" value="id_coach (FK) NN" style="text;strokeColor=none;align=left;fillColor=none;html=1;verticalAlign=middle;whiteSpace=wrap;rounded=0;fontFamily=Verdana;" parent="3PNE6WmQYY1Y-yN5yuSF-0" vertex="1">
          <mxGeometry x="55.00000000000001" y="150" width="110.00000000000001" height="30" as="geometry" />
        </mxCell>
        <mxCell id="3PNE6WmQYY1Y-yN5yuSF-11" value="&lt;b&gt;proj.messages&lt;/b&gt;" style="text;strokeColor=none;align=center;fillColor=none;html=1;verticalAlign=middle;whiteSpace=wrap;rounded=0;" parent="3PNE6WmQYY1Y-yN5yuSF-0" vertex="1">
          <mxGeometry width="240" height="40" as="geometry" />
        </mxCell>
        <mxCell id="3PNE6WmQYY1Y-yN5yuSF-12" value="message_date NN" style="text;strokeColor=none;align=left;fillColor=none;html=1;verticalAlign=middle;whiteSpace=wrap;rounded=0;fontFamily=Verdana;" parent="3PNE6WmQYY1Y-yN5yuSF-0" vertex="1">
          <mxGeometry x="55" y="180" width="125" height="30" as="geometry" />
        </mxCell>
        <mxCell id="3PNE6WmQYY1Y-yN5yuSF-13" value="response" style="text;strokeColor=none;align=left;fillColor=none;html=1;verticalAlign=middle;whiteSpace=wrap;rounded=0;fontFamily=Verdana;" parent="3PNE6WmQYY1Y-yN5yuSF-0" vertex="1">
          <mxGeometry x="55" y="210" width="175" height="30" as="geometry" />
        </mxCell>
        <mxCell id="-gnc18n2pd0LGO67LdCI-53" value="" style="rounded=0;whiteSpace=wrap;html=1;fillColor=#f5f5f5;fontColor=#333333;strokeColor=#666666;" parent="WIyWlLk6GJQsqaUBKTNV-1" vertex="1">
          <mxGeometry x="335.65999999999997" y="-40" width="240" height="40" as="geometry" />
        </mxCell>
        <mxCell id="-gnc18n2pd0LGO67LdCI-54" value="" style="rounded=0;whiteSpace=wrap;html=1;" parent="WIyWlLk6GJQsqaUBKTNV-1" vertex="1">
          <mxGeometry x="375.65999999999997" width="200" height="40" as="geometry" />
        </mxCell>
        <mxCell id="-gnc18n2pd0LGO67LdCI-55" value="" style="rounded=0;whiteSpace=wrap;html=1;" parent="WIyWlLk6GJQsqaUBKTNV-1" vertex="1">
          <mxGeometry x="335.65999999999997" width="40" height="40" as="geometry" />
        </mxCell>
        <mxCell id="-gnc18n2pd0LGO67LdCI-56" value="" style="rounded=0;whiteSpace=wrap;html=1;" parent="WIyWlLk6GJQsqaUBKTNV-1" vertex="1">
          <mxGeometry x="335.65999999999997" y="40" width="40" height="110" as="geometry" />
        </mxCell>
        <mxCell id="-gnc18n2pd0LGO67LdCI-57" value="" style="rounded=0;whiteSpace=wrap;html=1;" parent="WIyWlLk6GJQsqaUBKTNV-1" vertex="1">
          <mxGeometry x="375.65999999999997" y="40" width="200" height="110" as="geometry" />
        </mxCell>
        <mxCell id="-gnc18n2pd0LGO67LdCI-58" value="PK" style="text;strokeColor=none;align=center;fillColor=none;html=1;verticalAlign=middle;whiteSpace=wrap;rounded=0;fontFamily=Verdana;fontStyle=1" parent="WIyWlLk6GJQsqaUBKTNV-1" vertex="1">
          <mxGeometry x="335.65999999999997" width="40" height="40" as="geometry" />
        </mxCell>
        <mxCell id="-gnc18n2pd0LGO67LdCI-71" value="proj.registration_tournament" style="text;strokeColor=none;align=center;fillColor=none;html=1;verticalAlign=middle;whiteSpace=wrap;rounded=0;fontStyle=1;fontFamily=Verdana;" parent="WIyWlLk6GJQsqaUBKTNV-1" vertex="1">
          <mxGeometry x="335.65999999999997" y="-40" width="240" height="40" as="geometry" />
        </mxCell>
        <mxCell id="-gnc18n2pd0LGO67LdCI-72" value="&lt;b&gt;id_registration&lt;/b&gt;" style="text;strokeColor=none;align=left;fillColor=none;html=1;verticalAlign=middle;whiteSpace=wrap;rounded=0;fontStyle=4" parent="WIyWlLk6GJQsqaUBKTNV-1" vertex="1">
          <mxGeometry x="385.65999999999997" y="5" width="190" height="30" as="geometry" />
        </mxCell>
        <mxCell id="-gnc18n2pd0LGO67LdCI-76" value="user (FK) NN" style="text;strokeColor=none;align=left;fillColor=none;html=1;verticalAlign=middle;whiteSpace=wrap;rounded=0;fontFamily=Verdana;" parent="WIyWlLk6GJQsqaUBKTNV-1" vertex="1">
          <mxGeometry x="385.65999999999997" y="50" width="170" height="30" as="geometry" />
        </mxCell>
        <mxCell id="-gnc18n2pd0LGO67LdCI-77" value="tournament (FK) NN" style="text;strokeColor=none;align=left;fillColor=none;html=1;verticalAlign=middle;whiteSpace=wrap;rounded=0;fontFamily=Verdana;" parent="WIyWlLk6GJQsqaUBKTNV-1" vertex="1">
          <mxGeometry x="385.65999999999997" y="80" width="170" height="30" as="geometry" />
        </mxCell>
        <mxCell id="3PNE6WmQYY1Y-yN5yuSF-21" value="" style="rounded=0;whiteSpace=wrap;html=1;fillColor=#f5f5f5;fontColor=#333333;strokeColor=#666666;" parent="WIyWlLk6GJQsqaUBKTNV-1" vertex="1">
          <mxGeometry x="-3" y="-40" width="240" height="40" as="geometry" />
        </mxCell>
        <mxCell id="3PNE6WmQYY1Y-yN5yuSF-22" value="" style="rounded=0;whiteSpace=wrap;html=1;" parent="WIyWlLk6GJQsqaUBKTNV-1" vertex="1">
          <mxGeometry x="37" width="200" height="40" as="geometry" />
        </mxCell>
        <mxCell id="3PNE6WmQYY1Y-yN5yuSF-23" value="" style="rounded=0;whiteSpace=wrap;html=1;" parent="WIyWlLk6GJQsqaUBKTNV-1" vertex="1">
          <mxGeometry x="-3" width="40" height="40" as="geometry" />
        </mxCell>
        <mxCell id="3PNE6WmQYY1Y-yN5yuSF-24" value="" style="rounded=0;whiteSpace=wrap;html=1;" parent="WIyWlLk6GJQsqaUBKTNV-1" vertex="1">
          <mxGeometry x="-3" y="40" width="40" height="120" as="geometry" />
        </mxCell>
        <mxCell id="3PNE6WmQYY1Y-yN5yuSF-25" value="" style="rounded=0;whiteSpace=wrap;html=1;" parent="WIyWlLk6GJQsqaUBKTNV-1" vertex="1">
          <mxGeometry x="37" y="40" width="200" height="120" as="geometry" />
        </mxCell>
        <mxCell id="3PNE6WmQYY1Y-yN5yuSF-26" value="&lt;b&gt;PK&lt;/b&gt;" style="text;strokeColor=none;align=center;fillColor=none;html=1;verticalAlign=middle;whiteSpace=wrap;rounded=0;" parent="WIyWlLk6GJQsqaUBKTNV-1" vertex="1">
          <mxGeometry x="-3" width="40" height="40" as="geometry" />
        </mxCell>
        <mxCell id="3PNE6WmQYY1Y-yN5yuSF-27" value="&lt;b&gt;id_booking&lt;/b&gt;" style="text;strokeColor=none;align=left;fillColor=none;html=1;verticalAlign=middle;whiteSpace=wrap;rounded=0;fontStyle=4" parent="WIyWlLk6GJQsqaUBKTNV-1" vertex="1">
          <mxGeometry x="52" y="5" width="110.00000000000001" height="30" as="geometry" />
        </mxCell>
        <mxCell id="3PNE6WmQYY1Y-yN5yuSF-28" value="id_court (FK) NN" style="text;strokeColor=none;align=left;fillColor=none;html=1;verticalAlign=middle;whiteSpace=wrap;rounded=0;fontFamily=Verdana;" parent="WIyWlLk6GJQsqaUBKTNV-1" vertex="1">
          <mxGeometry x="52" y="50" width="175" height="30" as="geometry" />
        </mxCell>
        <mxCell id="3PNE6WmQYY1Y-yN5yuSF-29" value="id_user (FK) NN" style="text;strokeColor=none;align=left;fillColor=none;html=1;verticalAlign=middle;whiteSpace=wrap;rounded=0;fontFamily=Verdana;" parent="WIyWlLk6GJQsqaUBKTNV-1" vertex="1">
          <mxGeometry x="52" y="80" width="110.00000000000001" height="30" as="geometry" />
        </mxCell>
        <mxCell id="3PNE6WmQYY1Y-yN5yuSF-30" value="date_reservation NN" style="text;strokeColor=none;align=left;fillColor=none;html=1;verticalAlign=middle;whiteSpace=wrap;rounded=0;fontFamily=Verdana;" parent="WIyWlLk6GJQsqaUBKTNV-1" vertex="1">
          <mxGeometry x="52" y="110" width="165" height="30" as="geometry" />
        </mxCell>
        <mxCell id="3PNE6WmQYY1Y-yN5yuSF-31" value="&lt;div&gt;&lt;b&gt;proj.bookings&lt;/b&gt;&lt;/div&gt;" style="text;strokeColor=none;align=center;fillColor=none;html=1;verticalAlign=middle;whiteSpace=wrap;rounded=0;" parent="WIyWlLk6GJQsqaUBKTNV-1" vertex="1">
          <mxGeometry x="-3" y="-40" width="240" height="40" as="geometry" />
        </mxCell>
        <mxCell id="3PNE6WmQYY1Y-yN5yuSF-41" value="" style="rounded=0;whiteSpace=wrap;html=1;fillColor=#f5f5f5;fontColor=#333333;strokeColor=#666666;" parent="WIyWlLk6GJQsqaUBKTNV-1" vertex="1">
          <mxGeometry x="-313.5" y="-1120" width="360" height="40" as="geometry" />
        </mxCell>
        <mxCell id="3PNE6WmQYY1Y-yN5yuSF-42" value="" style="rounded=0;whiteSpace=wrap;html=1;" parent="WIyWlLk6GJQsqaUBKTNV-1" vertex="1">
          <mxGeometry x="-273.5" y="-1080" width="320" height="40" as="geometry" />
        </mxCell>
        <mxCell id="3PNE6WmQYY1Y-yN5yuSF-43" value="" style="rounded=0;whiteSpace=wrap;html=1;" parent="WIyWlLk6GJQsqaUBKTNV-1" vertex="1">
          <mxGeometry x="-313.5" y="-1080" width="40" height="40" as="geometry" />
        </mxCell>
        <mxCell id="3PNE6WmQYY1Y-yN5yuSF-44" value="" style="rounded=0;whiteSpace=wrap;html=1;" parent="WIyWlLk6GJQsqaUBKTNV-1" vertex="1">
          <mxGeometry x="-313.5" y="-1040" width="40" height="160" as="geometry" />
        </mxCell>
        <mxCell id="3PNE6WmQYY1Y-yN5yuSF-45" value="" style="rounded=0;whiteSpace=wrap;html=1;" parent="WIyWlLk6GJQsqaUBKTNV-1" vertex="1">
          <mxGeometry x="-273.5" y="-1040" width="320" height="160" as="geometry" />
        </mxCell>
        <mxCell id="3PNE6WmQYY1Y-yN5yuSF-46" value="&lt;b&gt;PK&lt;/b&gt;" style="text;strokeColor=none;align=center;fillColor=none;html=1;verticalAlign=middle;whiteSpace=wrap;rounded=0;" parent="WIyWlLk6GJQsqaUBKTNV-1" vertex="1">
          <mxGeometry x="-313.5" y="-1080" width="40" height="40" as="geometry" />
        </mxCell>
        <mxCell id="3PNE6WmQYY1Y-yN5yuSF-47" value="&lt;b&gt;id_court&lt;/b&gt;" style="text;strokeColor=none;align=left;fillColor=none;html=1;verticalAlign=middle;whiteSpace=wrap;rounded=0;fontStyle=4" parent="WIyWlLk6GJQsqaUBKTNV-1" vertex="1">
          <mxGeometry x="-258.5" y="-1075" width="110.00000000000001" height="30" as="geometry" />
        </mxCell>
        <mxCell id="3PNE6WmQYY1Y-yN5yuSF-48" value="name NN UNIQUE" style="text;strokeColor=none;align=left;fillColor=none;html=1;verticalAlign=middle;whiteSpace=wrap;rounded=0;fontFamily=Verdana;" parent="WIyWlLk6GJQsqaUBKTNV-1" vertex="1">
          <mxGeometry x="-258.5" y="-1030" width="175" height="30" as="geometry" />
        </mxCell>
        <mxCell id="3PNE6WmQYY1Y-yN5yuSF-49" value="location NN UNIQUE" style="text;strokeColor=none;align=left;fillColor=none;html=1;verticalAlign=middle;whiteSpace=wrap;rounded=0;fontFamily=Verdana;" parent="WIyWlLk6GJQsqaUBKTNV-1" vertex="1">
          <mxGeometry x="-258.5" y="-1000" width="145" height="30" as="geometry" />
        </mxCell>
        <mxCell id="3PNE6WmQYY1Y-yN5yuSF-50" value="flooring_type {&quot;grass&quot;, &quot;clay&quot;, &quot;artificial&quot;} NN" style="text;strokeColor=none;align=left;fillColor=none;html=1;verticalAlign=middle;whiteSpace=wrap;rounded=0;fontFamily=Verdana;" parent="WIyWlLk6GJQsqaUBKTNV-1" vertex="1">
          <mxGeometry x="-258.5" y="-970" width="305" height="30" as="geometry" />
        </mxCell>
        <mxCell id="3PNE6WmQYY1Y-yN5yuSF-51" value="&lt;b&gt;proj.courts&lt;/b&gt;" style="text;strokeColor=none;align=center;fillColor=none;html=1;verticalAlign=middle;whiteSpace=wrap;rounded=0;" parent="WIyWlLk6GJQsqaUBKTNV-1" vertex="1">
          <mxGeometry x="-313.5" y="-1120" width="360" height="40" as="geometry" />
        </mxCell>
        <mxCell id="3PNE6WmQYY1Y-yN5yuSF-52" value="picture NN" style="text;strokeColor=none;align=left;fillColor=none;html=1;verticalAlign=middle;whiteSpace=wrap;rounded=0;fontFamily=Verdana;" parent="WIyWlLk6GJQsqaUBKTNV-1" vertex="1">
          <mxGeometry x="-258.5" y="-940" width="110.00000000000001" height="30" as="geometry" />
        </mxCell>
        <mxCell id="3PNE6WmQYY1Y-yN5yuSF-64" value="" style="fontSize=12;html=1;endArrow=ERzeroToMany;endFill=1;rounded=0;exitX=0.344;exitY=1.025;exitDx=0;exitDy=0;exitPerimeter=0;entryX=0.178;entryY=0.033;entryDx=0;entryDy=0;entryPerimeter=0;" parent="WIyWlLk6GJQsqaUBKTNV-1" source="3PNE6WmQYY1Y-yN5yuSF-45" target="3PNE6WmQYY1Y-yN5yuSF-31" edge="1">
          <mxGeometry width="100" height="100" relative="1" as="geometry">
            <mxPoint x="-180" y="-750" as="sourcePoint" />
            <mxPoint x="90" y="-90" as="targetPoint" />
            <Array as="points">
              <mxPoint x="-163" y="-400" />
              <mxPoint x="40" y="-400" />
            </Array>
          </mxGeometry>
        </mxCell>
        <mxCell id="3PNE6WmQYY1Y-yN5yuSF-66" value="" style="fontSize=12;html=1;endArrow=ERzeroToMany;endFill=1;rounded=0;entryX=0.5;entryY=0;entryDx=0;entryDy=0;exitX=0;exitY=1;exitDx=0;exitDy=0;" parent="WIyWlLk6GJQsqaUBKTNV-1" source="-gnc18n2pd0LGO67LdCI-30" target="3PNE6WmQYY1Y-yN5yuSF-31" edge="1">
          <mxGeometry width="100" height="100" relative="1" as="geometry">
            <mxPoint x="120" y="-760" as="sourcePoint" />
            <mxPoint x="167" y="-560" as="targetPoint" />
          </mxGeometry>
        </mxCell>
        <mxCell id="3PNE6WmQYY1Y-yN5yuSF-67" value="" style="fontSize=12;html=1;endArrow=ERzeroToMany;endFill=1;rounded=0;entryX=0.327;entryY=0.031;entryDx=0;entryDy=0;entryPerimeter=0;exitX=1;exitY=0.286;exitDx=0;exitDy=0;exitPerimeter=0;" parent="WIyWlLk6GJQsqaUBKTNV-1" source="-gnc18n2pd0LGO67LdCI-30" target="3PNE6WmQYY1Y-yN5yuSF-11" edge="1">
          <mxGeometry width="100" height="100" relative="1" as="geometry">
            <mxPoint x="980" y="-440" as="sourcePoint" />
            <mxPoint x="1080" y="-540" as="targetPoint" />
            <Array as="points">
              <mxPoint x="800" y="-971" />
            </Array>
          </mxGeometry>
        </mxCell>
        <mxCell id="3PNE6WmQYY1Y-yN5yuSF-68" value="" style="fontSize=12;html=1;endArrow=ERzeroToMany;endFill=1;rounded=0;entryX=0.664;entryY=-0.04;entryDx=0;entryDy=0;entryPerimeter=0;exitX=0.992;exitY=0.157;exitDx=0;exitDy=0;exitPerimeter=0;" parent="WIyWlLk6GJQsqaUBKTNV-1" source="-gnc18n2pd0LGO67LdCI-30" target="3PNE6WmQYY1Y-yN5yuSF-11" edge="1">
          <mxGeometry width="100" height="100" relative="1" as="geometry">
            <mxPoint x="990" y="-430" as="sourcePoint" />
            <mxPoint x="870" y="-80" as="targetPoint" />
            <Array as="points">
              <mxPoint x="880" y="-1002" />
            </Array>
          </mxGeometry>
        </mxCell>
        <mxCell id="3PNE6WmQYY1Y-yN5yuSF-69" value="" style="fontSize=12;html=1;endArrow=ERzeroToMany;endFill=1;rounded=0;entryX=0.379;entryY=-0.05;entryDx=0;entryDy=0;entryPerimeter=0;exitX=1;exitY=0.5;exitDx=0;exitDy=0;" parent="WIyWlLk6GJQsqaUBKTNV-1" source="-gnc18n2pd0LGO67LdCI-30" target="-gnc18n2pd0LGO67LdCI-14" edge="1">
          <mxGeometry width="100" height="100" relative="1" as="geometry">
            <mxPoint x="532.79" y="-700" as="sourcePoint" />
            <mxPoint x="632.79" y="-800" as="targetPoint" />
            <Array as="points">
              <mxPoint x="519" y="-920" />
            </Array>
          </mxGeometry>
        </mxCell>
        <mxCell id="3PNE6WmQYY1Y-yN5yuSF-70" value="" style="fontSize=12;html=1;endArrow=ERzeroToMany;endFill=1;rounded=0;entryX=0.598;entryY=0.029;entryDx=0;entryDy=0;entryPerimeter=0;" parent="WIyWlLk6GJQsqaUBKTNV-1" target="-gnc18n2pd0LGO67LdCI-71" edge="1">
          <mxGeometry width="100" height="100" relative="1" as="geometry">
            <mxPoint x="480" y="-280" as="sourcePoint" />
            <mxPoint x="650" y="40" as="targetPoint" />
          </mxGeometry>
        </mxCell>
        <mxCell id="3PNE6WmQYY1Y-yN5yuSF-72" value="" style="fontSize=12;html=1;endArrow=ERzeroToMany;endFill=1;rounded=0;entryX=0.1;entryY=-0.007;entryDx=0;entryDy=0;entryPerimeter=0;" parent="WIyWlLk6GJQsqaUBKTNV-1" target="-gnc18n2pd0LGO67LdCI-71" edge="1">
          <mxGeometry width="100" height="100" relative="1" as="geometry">
            <mxPoint x="280" y="-800" as="sourcePoint" />
            <mxPoint x="800" y="-440" as="targetPoint" />
            <Array as="points">
              <mxPoint x="280" y="-400" />
              <mxPoint x="360" y="-400" />
            </Array>
          </mxGeometry>
        </mxCell>
      </root>
    </mxGraphModel>
  </diagram>
</mxfile>
